<svg width="60" height="58" viewBox="0 0 60 58" fill="none" xmlns="http://www.w3.org/2000/svg">
<path d="M58.7857 50.8969H52.4329C56.6497 45.3031 58.9721 38.3085 58.9721 31.2017C58.9721 13.9928 45.9751 -0.0078125 29.9982 -0.0078125C14.0219 -0.0078125 1.02429 13.9934 1.02429 31.2017C1.02429 38.3097 3.34548 45.3043 7.56163 50.8969H1.21433C0.544019 50.8969 0 51.4409 0 52.1112V56.7949C0 57.4652 0.544019 58.0092 1.21433 58.0092H18.5495C19.2198 58.0092 19.7638 57.4652 19.7638 56.7949V51.5775C19.7638 51.2885 19.6612 51.0098 19.4742 50.7906L19.4068 50.7111C19.3388 50.6303 19.2599 50.5593 19.173 50.4998C13.207 46.365 9.5003 38.9709 9.5003 31.201C9.5003 18.6655 18.6958 8.4676 29.9982 8.4676C41.2999 8.4676 50.4954 18.6661 50.4954 31.201C50.4954 39.0037 46.7656 46.4136 40.7632 50.5398C40.4335 50.7663 40.2368 51.1403 40.2368 51.5398V56.7936C40.2368 57.4639 40.7808 58.008 41.4511 58.008H58.7857C59.456 58.008 60 57.4639 60 56.7936V52.11C60 51.4403 59.4572 50.8969 58.7857 50.8969Z" fill="white"/>
</svg>
